<?xml version="1.0" encoding="utf-8"?>
<!-- Generator: Adobe Illustrator 28.2.0, SVG Export Plug-In . SVG Version: 6.00 Build 0)  -->
<svg version="1.1" id="Layer_1" xmlns="http://www.w3.org/2000/svg" xmlns:xlink="http://www.w3.org/1999/xlink" x="0px" y="0px"
	 viewBox="0 0 750 1125" style="enable-background:new 0 0 750 1125;" xml:space="preserve">
<style type="text/css">
	.st0{fill:none;stroke:#425426;stroke-width:2;stroke-miterlimit:10;}
	.st1{fill:#425426;}
</style>
<path class="st0" d="M808.45,85.66c-28.56,3.75-41.74,14.63-48.49,23.45c-16.16,21.11-7.22,45.72-29.07,65.49
	c-6.49,5.87-7.91,4.27-20.9,14.79c0,0-17.06,13.81-28.56,29.37c-1.19,1.61-4.27,5.96-6.77,10.05c-3.11,5.07-3.06,5.66-6.83,12.07
	c-2.6,4.42-4.72,7.7-6.7,10.78c-2.92,4.53-5.15,7.78-7.46,11.14c-3.62,5.28-6.36,9.09-9.07,12.87c-3.73,5.18-5.64,7.84-8,10.8
	c-2.33,2.92-4.08,5.11-6.71,7.89c-4.15,4.38-7.73,7.31-10.96,9.93c-3.05,2.48-5.55,4.51-9.06,6.79c-3.39,2.2-8.05,5.19-14.77,7.53
	c-6.85,2.38-12.49,2.93-14.5,3.08c-5.04,0.39-7.5-0.12-19.38-1.39c-11.44-1.22-12.31-1.08-15.31-1.5
	c-20.97-2.95-36.99-18.53-40.14-21.6c-4.11-3.99-13.42-13.25-18.98-28.2c-3.66-9.86-4.37-18.64-4.96-25.94
	c-1.19-14.74,1.25-16.81-0.74-28.71c-1.59-9.51-4.55-16.51-7.28-22.98c-4.2-9.96-6.44-15.26-11.67-21
	c-7.27-7.98-15.6-11.61-19.43-13.23c-4.09-1.73-4.75-1.46-23.84-7.17c-0.86-0.26-7.76-2.33-9.63-2.98
	c-11.6-4.01-19.45-19.34-20.96-22.29c-9.66-18.95-6.13-37.74-5.37-41.42c3.78-18.36,15.77-29.97,27.72-40.88
	c25.62-23.38,54.38-34.36,76.08-39.71c26-7.65,52-15.31,78-22.96"/>
<path class="st1" d="M426.26,53.6c14.7-16.65,32.22-22.55,62.18-32.15c13.15-4.22,28.6-9.09,50.59-12.43
	c24.9-3.78,44.4-3.5,85.74-0.83c102.9,6.64,110.96,13.2,115.7,19.98c13.36,19.09,7.57,50.1-2.5,68.26
	c-12.49,22.53-43.54,46.84-52.63,59.07c-6.46,8.69-12.11,17.91-12.11,17.91c0,0,0,0,0,0c-1.75,2.83-4.4,7.24-7.4,12.78
	c-5.23,9.64-8.11,16.4-10.56,21.8c-7.92,17.48-16.69,36.46-32.93,53.94c-2.71,2.92-5.06,5.18-6.6,6.62l-6.19,5.45l-8.87,5.49
	l-11.17,4.66l-9.76,2.38l-9.58,0.58l-13.27-1.3l-12.62-4.87l-9.52-6.08l-7.4-6.48c-4.23-4.52-8.47-9.04-12.7-13.55
	c-1.85-3.03-3.69-6.06-5.54-9.09c-1.71-3.46-3.42-7.42-4.95-11.87c-2.47-7.18-3.83-13.78-4.59-19.35c-0.12-1.37-0.3-3.19-0.62-5.33
	c-0.31-2.12-1.08-6.89-2.75-12.53c-2.17-7.34-5.07-13.47-7.56-17.98c-1.9-2.35-3.79-4.7-5.69-7.05l-5.61-5.88l-5.46-5.48l-7.34-5.76
	l-7.88-5.13l-7.38-4.41c-2.6-1.39-5.21-2.78-7.81-4.17c-5.29-3.2-15.5-10.35-22.94-23.4c-2.78-4.87-8.99-15.94-8.2-30.38
	C411.26,70.89,420.84,59.74,426.26,53.6z"/>
</svg>
