<?xml version="1.0" encoding="utf-8"?>
<!-- Generator: Adobe Illustrator 28.2.0, SVG Export Plug-In . SVG Version: 6.00 Build 0)  -->
<svg version="1.1" id="Layer_1" xmlns="http://www.w3.org/2000/svg" xmlns:xlink="http://www.w3.org/1999/xlink" x="0px" y="0px"
	 viewBox="0 0 750 1125" style="enable-background:new 0 0 750 1125;" xml:space="preserve">
<style type="text/css">
	.st0{fill:#425426;}
</style>
<path class="st0" d="M70.83,88.52c-0.9,5.38-2.22,13.04-3.94,22.24c-3.02,16.11-4.57,24.34-7.07,32.76
	c-3.9,13.16-8.17,22.4-9.42,25.05c-3.77,7.99-7.63,14.51-10.81,19.41c-7.31,12.46-8.52,22.4-8.25,29.23
	c0.26,6.54,1.78,7.89,3.84,20.91c2.53,16.03,1.87,24.44,3.43,24.61c1.07,0.12,3.04-3.63,7.07-22.47c2.76-5.4,5.52-10.81,8.27-16.21
	c3.26-5.09,6.4-10.53,9.35-16.33c21.29-41.91,23-84.09,20.46-114.18c1.47,1.64,3.61,4.08,6.1,7.11c11.77,14.29,20.68,25.1,25.8,40.3
	c3.6,10.7,3.99,19.6,4.44,29.93c0.35,8.02,0.63,15.73-1.56,25.4c-1.45,6.38-2.55,7.36-7.77,21.13c-5.25,13.86-4.7,14.35-9.1,26.04
	c-7.46,19.81-9.19,18.74-12.47,29.76c-1.94,6.53-5.47,18.79-4.13,34.02c0.93,10.59,4.69,19.51,12.2,37.36
	c5.27,12.53,8.36,19.72,14.74,28.5c8.01,11.02,15.88,17.19,18.92,19.45c1.9,1.41,4.08,4.82,7.99,5.26c3.39,0.37,7.5-1.24,9.5-4.2
	c2.35-3.47,1.01-7.65-5.53-25.05c-4.29-11.39-5.86-15.3-8.29-22.11c-3.38-9.46-5.07-14.2-6.34-19.72c-1.07-4.63-1.7-8.74-2.94-23.21
	c-0.98-11.41-1.48-17.27-2.05-27.83c-1.18-21.89-1.77-32.83-0.87-40.1c1.22-9.79,2.5-10,5.43-28.94c1.46-9.44,2.06-15.29,2.23-21.67
	c0.21-7.58-0.24-13.92-0.72-18.47l6.79,15.39l2.21,19.01c2.67,8.75,5.9,22.24,6.21,39.01c0.18,9.86-0.77,14.37-1.06,25.58
	c-0.13,4.82-0.66,25.1,2.92,43.43c5.24,26.84,18.48,45.28,29.13,60.13c8.02,11.17,18.36,25.33,36.35,38.35
	c9.01,6.52,18.04,11.03,36.12,20.06c9.59,4.79,14.19,6.69,39.27,18.5c8.56,4.03,15.57,7.37,20.14,9.55l5.77,0.52l-1.09-9.39
	l-9.89-9.05c-5.5-4.37-13.24-11.46-20.01-21.9c-7.13-11-8.38-18.31-11.51-24.97c-9.57-20.38-28.94-18.14-53.34-35.21
	c-34.43-24.09-46.73-64.15-51.9-80.97c-5.11-16.64-6.85-31.21-7.45-41.6c1.69,2.09,4.23,5.38,6.96,9.63
	c5.43,8.44,7.94,14.91,9.4,18.08c3.11,6.77,11.65,14.11,28.74,28.79c9.26,7.95,16.85,14.43,28.23,22.1
	c8.4,5.65,12.59,8.48,18.6,11.34c18.38,8.73,35.28,9.17,48.16,9.51c9.64,0.25,22.41,0.58,37.8-3.32c5.47-1.39,9.42-2.84,16.62-3.66
	c11.4-1.3,19.7,0.28,25.59,1.12c9.33,1.33,22.75,2.26,40.17,0.28c-1.36-2.94-3.89-7.49-8.46-11.53
	c-11.59-10.24-27.75-9.66-36.48-9.35c-12.06,0.43-13.01,3.09-24.08,2.59c-2.88-0.13-10.47-0.66-23.7-5.22
	c-15.12-5.22-18.14-9-37.99-18.66c-15.98-7.78-23.98-11.68-31.98-13.32c-15.03-3.09-21.27-0.07-35.39-5.59
	c-6.2-2.43-10.2-5.05-17.78-10.01c-6.53-4.28-16.71-11.05-27.46-22.69c-9.12-9.89-14.72-19.04-17.45-23.86
	c-5.96-10.52-9.5-20.25-11.65-27.77c2.15,1.57,5.4,4.01,9.24,7.12c8.65,7,13.17,11.66,19.76,17.77c4.21,3.9,12.14,11.21,22.52,19.17
	c6.67,5.12,12.66,9.07,24.63,16.98c11.76,7.76,14.56,9.18,16.79,10.2c2.31,1.06,10.54,4.69,23.08,6.56
	c13,1.94,23.46,0.65,43.85-2.02c2.6-0.34,14.14-1.88,29.55-4.89c19.13-3.75,19.57-4.95,34.51-7.47c16.48-2.78,18.36-1.73,29.39-4.69
	c13.45-3.62,12.64-5.72,22.71-7.54c2.89-0.52,12.12-0.57,30.59-0.66c4.83-0.02,11.36-0.04,20.24-0.72c3.6-0.28,6.58-0.59,8.61-0.82
	c-12.04-3.73-20.28-8.88-25.64-12.98c-7.9-6.04-9.18-9.51-17.87-14.79c-9.92-6.03-18.85-7.95-21.86-8.52
	c-5.09-0.96-11.11-1.43-23.22-0.02c-14.35,1.67-27.51,4.84-40.67,9.09c-6.03,1.95-8.79,3.07-38.19,14.79
	c-3.72,1.48-20.89,8.33-24.45,9.74c-6.31,2.64-16.97,6.1-30.2,5.51c-3.49-0.15-13.62-0.88-31.53-9.03
	c-15.55-7.07-23.21-13.49-42.31-26.82c-8.47-5.91-21.07-14.5-36.97-24.54l-4.42-5.35c1.78,0.31,4.41,0.9,7.42,2.08
	c3.81,1.5,6.48,3.27,12.71,7.71c9.44,6.74,8.22,6.17,9.66,6.99c5.18,2.92,9.61,3.78,18.25,5.39c5.96,1.11,10.25,1.56,17.01,2.24
	c10.93,1.11,16.39,1.67,22.09,1.5c1.78-0.05,10.26-0.35,21.19-2.86c4.64-1.06,12-2.79,20.87-6.89c4.05-1.87,13.47-6.57,23.56-15.42
	c8.14-7.14,7.08-8.53,17.06-18.11c6.01-5.77,11.71-11.23,20.68-16.65c7.72-4.67,15.61-9.43,26.88-11.12
	c7.42-1.11,12.84-0.38,13.36-2.34c0.58-2.18-5.29-6.09-10.77-8.05c-4.44-1.59-10.92-2.7-26.73,1.15c-9.29,2.26-15.78,4.77-26.1,8.81
	c-12.04,4.71-21.12,8.88-26.46,11.34c-11.85,5.46-23,11.12-24.19,11.73c-8.89,4.53-9.13,4.89-12.5,6.3
	c-8.45,3.55-15.08,4.69-24.95,6.31c-12.04,1.98-22.84,3.76-37.43,2.66c-8.36-0.64-14.62-1.97-16.93-2.48
	c-6.19-1.39-17.12-3.93-29.34-11.13c-6.45-3.8-12.59-7.42-18.2-14.52c-3.7-4.68-3.1-5.74-8.29-12.66
	c-6.65-8.88-12.44-13.58-11.55-14.77c0.66-0.89,4.46,0.92,5.12,1.24c5.33,2.54,6.95,6.06,11.81,10.29c2.22,1.92,4.08,3.05,7.82,5.3
	c11.5,6.93,24.97,8.29,38.86,9.57c6.47,0.6,12.7,1.14,21.1,0.54c9.58-0.68,15.65-1.12,22.57-4.63c8.35-4.25,14.19-11.08,16.91-14.26
	c4.14-4.84,5.13-7.41,9.92-11.18c3.09-2.43,6.54-5.15,11.71-6.17c4.11-0.82,6.49,0,7.07-1.22c0.89-1.87-3.36-6.67-8.4-9.04
	c-7.96-3.75-16.62-0.85-21.67,0.92c-6.99,2.45-7.26,4.32-19.43,10.95c-7.19,3.92-11.53,6.28-17.22,8.15
	c-2.51,0.83-13.02,4.1-26.66,2.84c-8.56-0.79-6.75-2.3-32.76-9.41c-6.29-1.72-10.27-2.69-16.35-5.04
	c-7.08-2.81-12.62-5.71-16.29-7.81l-6.67-4.09C70.05,30.08,51.37-21.47,32.7-73.03c-2.29,0.82-4.58,1.64-6.86,2.46
	C40.89-19.15,55.94,32.27,70.99,83.7C70.94,85.31,70.88,86.91,70.83,88.52z"/>
</svg>
