<?xml version="1.0" encoding="utf-8"?>
<!-- Generator: Adobe Illustrator 28.2.0, SVG Export Plug-In . SVG Version: 6.00 Build 0)  -->
<svg version="1.1" id="Layer_1" xmlns="http://www.w3.org/2000/svg" xmlns:xlink="http://www.w3.org/1999/xlink" x="0px" y="0px"
	 viewBox="0 0 750 1125" style="enable-background:new 0 0 750 1125;" xml:space="preserve">
<style type="text/css">
	.st0{fill:none;stroke:#C65B27;stroke-width:2;stroke-miterlimit:10;}
	.st1{fill:#C65B27;}
</style>
<path class="st0" d="M1.42,925.13c-3.6-37.46-2.81-99.39,32.5-161.88c22.86-40.46,73.09-103.99,118.5-99.93
	c7.18,0.64,31.47,4.22,43.77,18.34c7.19,8.24,8.13,15.89,22.02,33.32c9.19,11.53,17.18,19.12,25.67,27.12
	c15.62,14.72,19.84,15.29,41.22,33.71c13.8,11.89,20.7,17.84,26.71,25.42c11.96,15.09,17.13,29.07,21.34,40.42
	c4.06,10.96,8.89,24.35,9.87,42.78c0.93,17.57-2.11,31.03-3.37,36.03c-1.81,7.19-5.87,22.71-17.69,39.12
	c-10.64,14.78-14.73,12.45-22.15,24.75c-8.42,13.95-9.38,27.28-10.49,42.46c-0.61,8.5-1.42,20.98,2.49,36.74
	c1.09,4.4,3.94,14.61,10.51,26.46c0.32,0.56,0.69,1.22,1.15,1.99c9.78,16.35,32.35,35.96,36.55,39.69
	c4.96,4.41,22.19,19.72,29.98,42.38c10.44,30.39-1.34,58.81-4.23,65.77c-5.85,14.1-13.71,24.19-19.2,30.27"/>
<path class="st1" d="M170.92,715.93c-14.45-3.29-27.53,4.33-35.92,9.22c-6.35,3.69-10.28,7.26-17.61,13.91
	c-4.04,3.67-11.33,10.58-19.29,20.19c-42.17,50.91-58.23,123.23-51.5,180.64c1.74,14.85,5.01,28.77,5.73,55.03
	c0.8,29.26-2.67,33.42,0,52.74c2.21,15.96,6.14,44.38,26.37,60.77c8.67,7.02,20.24,11.77,56.05,12.32
	c63.42,0.98,105.33,2.1,116.02-20.79c13.98-29.92-31.4-61.85-15.53-99.74c3.95-9.43,19.13-37.01,24.8-45.98
	c4.17-6.6,6.34-9.85,7.54-11.62c4.19-6.13,5.33-7.2,7.95-12.7c9.74-20.49,9.69-38.89,9.53-49.88c-0.17-11.92-0.45-33.26-13.17-55.61
	c-6.09-10.69-15.84-20.46-35.34-40.01c-12.49-12.51-20.47-19.12-31.01-32.86c-7.07-9.23-11.96-17.32-14.99-22.73
	C187,724.36,180.62,718.14,170.92,715.93z"/>
</svg>
