<?xml version="1.0" encoding="utf-8"?>
<!-- Generator: Adobe Illustrator 28.2.0, SVG Export Plug-In . SVG Version: 6.00 Build 0)  -->
<svg version="1.1" id="Layer_1" xmlns="http://www.w3.org/2000/svg" xmlns:xlink="http://www.w3.org/1999/xlink" x="0px" y="0px"
	 viewBox="0 0 750 1125" style="enable-background:new 0 0 750 1125;" xml:space="preserve">
<style type="text/css">
	.st0{fill:none;stroke:#E3B75A;stroke-width:2;stroke-miterlimit:10;}
	.st1{fill:#E3B75A;}
</style>
<path class="st0" d="M438.81,1216.59c-25.92-14.65-57.11-37.1-83.98-70.76c-23.77-29.78-34.48-56.22-36.93-62.45
	c-6.01-15.3-17.71-46.02-15.11-87.32c2.05-32.5,12.05-56.28,14.37-61.84c8.45-20.28,18.8-34.1,33.26-53.69
	c17.68-23.96,20.85-23.03,31.68-40.6c10.09-16.37,8.1-18.39,23.88-48.19c14.98-28.28,21.32-35.03,29.45-40.18
	c6.06-3.84,17.24-9.4,31.73-9.72c22.53-0.5,37.36,12.05,40.4,14.74c5.74,5.1,10.18,13.57,19.07,30.49
	c9.06,17.25,7.55,17.63,12.97,25.78c6.51,9.79,13.24,15.86,26.7,27.98c12.41,11.19,18.78,16.86,27.01,20.47
	c5.28,2.32,16.09,6.91,30.63,5.94c6.12-0.41,12.78-1.8,31.53-10.75c31.09-14.84,30.22-19.3,43.49-22.42
	c3.01-0.71,26.96-5.99,46.99,6.64c17.03,10.73,21.55,28.28,23.95,37.59c6.31,24.45-3.93,33.85,1.54,50.68
	c3.77,11.59,14.84,26.3,48.13,38.19"/>
<path class="st1" d="M335.38,1033.56c7.08,16.3,23.92,48.01,60.52,69.74c52.16,30.98,107.82,19.17,167.25,6.1
	c81.46-17.91,147.97-32.54,174.44-88.63c25.8-54.66,8.44-137.82-31.92-151.03c-7.43-2.43-25.98-5.88-56.24,15.21
	c-3.5,1.04-9.1,2.49-16.08,3.38c-34.84,4.4-74.17-9.33-93.41-34.35c-4.65-6.04-11.63-17.29-17.23-30.27
	c-4.8-11.13-3.87-12.59-7.57-18.41c-1.8-2.84-14.01-21.36-35.62-23.37c-16.67-1.54-29.74,7.57-37.32,12.86
	c-17.47,12.18-21.71,24.68-34.99,44.91c-21.82,33.25-26.92,24.69-44.92,53.29c0,0-23.86,37.9-28.84,81.37
	c-1.21,10.56-1.39,22.15-1.39,22.15c-0.17,4.83-0.12,10.16,0.29,15.87C332.9,1020.29,334.04,1027.4,335.38,1033.56z"/>
</svg>
